<svg xmlns="http://www.w3.org/2000/svg" viewBox="0 0 1224 408" id="Layer_1"
    class="logic-shift-logo-svg">
    <title>Logic Shift Logo</title>
    <desc>Logic Shift Logo Text Stacked</desc>
    <style>
        polygon {
            shape-rendering: crispEdges;
            stroke-width: 1
        }

        .cls-1 {
            fill: #5f1522
        }

        .cls-2 {
            fill: #46cec4
        }

        .cls-3 {
            fill: #ee6c20
        }

        .cls-4 {
            fill: #f48631
        }

        .cls-5 {
            fill: #f49543
        }

        .cls-6 {
            fill: #822339
        }

        .cls-7 {
            fill: #92344c
        }
        path {
            fill: #9ca3af;
        }
        @media (prefers-color-scheme: dark) {
            path { fill: #9ca3af }
        }
        .group-txt {
            shape-rendering: inherit;
            font-size: 9pt;
            fill-rule: evenodd;
        }
        #lttr-2{
            fill-rule: nonzero
        }
    </style>
    <svg viewBox="0 0 408 408" width="408" height="408"
    preserveAspectRatio="xMinYMid meet" x="0" y="0">
    <g id="logo-svg">
        <polygon id="polygon-1" class="cls-1" points="66,408 202,408 272,272 136,272"/>
        <polygon id="polygon-2" class="cls-2" points="272,272 136,272 204,136"/>
        <polygon id="polygon-3" class="cls-3" points="0,272 66,136 136,272 66,408"/>
        <polygon id="polygon-4" class="cls-4" points="204,136 136,272 66,136 136,0" />
        <polygon id="polygon-5" class="cls-5" points="272,0 136,0 204,136" />
        <polygon id="polygon-6" class="cls-6" points="202,408 338,408 272,272" />
        <polygon id="polygon-7" class="cls-7" points="272,272 408,272 338,408"/>
    </g>
    </svg>
    <svg viewBox="0 0 596.6 306" width="745.25" height="408"
    preserveAspectRatio="xMaxYMid meet" x="478" y="0">
    <g id="logo-txt" >
        <g id="svgGroup1" class="group-txt txt-logic">
            <path d="M 101.6 143.002 L 0 143.002 L 0 1.002 L 32.8 1.002 L 32.8 114.202 L 101.6 114.202 L 101.6 143.002 Z"
                id="lttr-0" />
            <path
                d="M 161.736 142.163 A 72.287 72.287 0 0 0 179.2 144.202 A 77.771 77.771 0 0 0 183.482 144.085 A 65.934 65.934 0 0 0 207.5 138.302 Q 220.4 132.402 230 122.302 Q 239.6 112.202 244.8 99.402 Q 250 86.602 250 72.402 Q 250 59.002 245 46.102 Q 240 33.202 230.7 22.802 Q 221.4 12.402 208.5 6.302 A 61.231 61.231 0 0 0 197.979 2.467 A 70.746 70.746 0 0 0 179.8 0.202 Q 164.4 0.202 151.4 6.002 Q 138.4 11.802 128.9 21.902 Q 119.4 32.002 114.1 44.802 Q 108.8 57.602 108.8 71.802 Q 108.8 85.602 113.8 98.502 Q 118.8 111.402 128.1 121.702 Q 137.4 132.002 150.3 138.102 A 61.123 61.123 0 0 0 161.736 142.163 Z M 142.2 72.202 Q 142.2 80.402 144.6 88.102 A 42.799 42.799 0 0 0 150.839 100.662 A 40.6 40.6 0 0 0 151.7 101.802 Q 156.4 107.802 163.4 111.402 A 32.427 32.427 0 0 0 174.233 114.684 A 40.954 40.954 0 0 0 179.4 115.002 A 40.344 40.344 0 0 0 187.685 114.189 A 30.776 30.776 0 0 0 195.8 111.302 Q 202.8 107.602 207.4 101.402 Q 212 95.202 214.3 87.502 Q 216.6 79.802 216.6 71.802 Q 216.6 63.602 214.2 56.002 Q 211.8 48.402 207 42.302 Q 202.2 36.202 195.2 32.802 A 33.832 33.832 0 0 0 184.208 29.67 A 41.957 41.957 0 0 0 179.4 29.402 Q 170 29.402 163.1 33.002 Q 156.2 36.602 151.5 42.702 Q 146.8 48.802 144.5 56.502 Q 142.2 64.202 142.2 72.202 Z"
                id="lttr-1" />
            <path
                d="M 388.6 31.002 L 364.2 49.402 Q 359.4 40.002 350.3 34.602 Q 341.2 29.202 330.6 29.202 A 33.806 33.806 0 0 0 319.772 30.906 A 31.287 31.287 0 0 0 315.9 32.502 Q 309.2 35.802 304.3 41.702 A 41.521 41.521 0 0 0 297.309 53.952 A 47.715 47.715 0 0 0 296.8 55.402 A 51.365 51.365 0 0 0 294.299 68.732 A 59.989 59.989 0 0 0 294.2 72.202 A 52.991 52.991 0 0 0 295.349 83.414 A 45.619 45.619 0 0 0 297 89.202 A 43.315 43.315 0 0 0 301.873 98.909 A 38.404 38.404 0 0 0 304.8 102.702 Q 309.8 108.402 316.7 111.602 A 34.777 34.777 0 0 0 328.649 114.67 A 41.855 41.855 0 0 0 332 114.802 Q 342.2 114.802 351.5 109.702 Q 360.8 104.602 368.6 94.602 L 368.6 127.002 Q 351.6 144.002 329.2 144.002 Q 315.2 144.002 302.8 138.702 Q 290.4 133.402 281 123.702 A 69.446 69.446 0 0 1 266.72 101.735 A 79.146 79.146 0 0 1 266.3 100.702 A 74.397 74.397 0 0 1 261.571 81.43 A 92.811 92.811 0 0 1 261 71.002 A 71.474 71.474 0 0 1 264.565 48.272 A 66.927 66.927 0 0 1 266.4 43.402 Q 271.8 30.602 281.4 20.802 Q 291 11.002 303.9 5.502 A 69.622 69.622 0 0 1 329.006 0.05 A 80.26 80.26 0 0 1 331.8 0.002 A 77.674 77.674 0 0 1 350.79 2.235 A 63.454 63.454 0 0 1 366.4 8.402 A 56.606 56.606 0 0 1 381.137 20.053 A 51.005 51.005 0 0 1 388.6 31.002 Z M 366.6 143.002 L 366.6 92.602 L 339 92.602 L 339 68.802 L 393.8 68.802 L 393.8 143.002 L 366.6 143.002 Z"
                id="lttr-2" />
            <path d="M 448.2 143.002 L 415.4 143.002 L 415.4 1.002 L 448.2 1.002 L 448.2 143.002 Z" id="lttr-3" />
            <path
                d="M 595 31.202 L 569.8 48.802 Q 566.6 41.202 561.3 37.002 Q 556 32.802 549.7 31.102 A 49.672 49.672 0 0 0 542.02 29.641 A 41.735 41.735 0 0 0 537.6 29.402 A 40.344 40.344 0 0 0 529.315 30.215 A 30.776 30.776 0 0 0 521.2 33.102 Q 514.2 36.802 509.6 43.002 Q 505 49.202 502.8 56.802 Q 500.6 64.402 500.6 72.002 Q 500.6 80.402 503.2 88.202 A 43.617 43.617 0 0 0 509.511 100.473 A 41.082 41.082 0 0 0 510.7 102.002 Q 515.6 108.002 522.6 111.502 A 33.544 33.544 0 0 0 536.437 114.971 A 39.409 39.409 0 0 0 538 115.002 A 38.754 38.754 0 0 0 548.171 113.604 A 44.736 44.736 0 0 0 550.2 113.002 Q 556.4 111.002 561.7 106.702 A 26.405 26.405 0 0 0 568.662 97.932 A 32.324 32.324 0 0 0 569.8 95.402 L 596.6 111.202 A 41.629 41.629 0 0 1 584.835 127.347 A 50.16 50.16 0 0 1 582.8 129.002 Q 573.2 136.402 561.1 140.302 A 79.496 79.496 0 0 1 542.377 144.015 A 72.166 72.166 0 0 1 537.2 144.202 A 65.583 65.583 0 0 1 516.354 140.947 A 60.536 60.536 0 0 1 508.9 137.902 Q 496 131.602 486.7 121.102 Q 477.4 110.602 472.3 97.502 Q 467.2 84.402 467.2 70.802 Q 467.2 57.802 472 45.302 Q 476.8 32.802 486 22.602 A 68.161 68.161 0 0 1 507.579 6.687 A 77.841 77.841 0 0 1 508.4 6.302 A 65.804 65.804 0 0 1 527.763 0.858 A 83.656 83.656 0 0 1 538.4 0.202 A 78.271 78.271 0 0 1 555.985 2.091 A 60.563 60.563 0 0 1 573.1 8.802 A 59.628 59.628 0 0 1 587.428 20.302 A 52.475 52.475 0 0 1 595 31.202 Z"
                id="lttr-4" />
        </g>
        <g id="svgGroup2" class="group-txt txt-shift" transform="translate(0,160.3) scale(1.04,1)">
            <path
                d="M 0 127.2 L 20.4 98.6 A 3.866 3.866 0 0 0 20.792 99.119 Q 21.722 100.191 24.3 102.3 Q 26.692 104.258 30.345 106.32 A 77.572 77.572 0 0 0 33.3 107.9 Q 39 110.8 46.1 113 Q 53.2 115.2 61 115.2 Q 65.408 115.2 68.63 114.442 A 17.769 17.769 0 0 0 71.3 113.6 A 14.317 14.317 0 0 0 73.916 112.218 Q 75.597 111.076 76.621 109.546 A 8.855 8.855 0 0 0 76.9 109.1 Q 78.6 106.2 78.6 102.6 A 8.523 8.523 0 0 0 75.72 96.024 A 11.285 11.285 0 0 0 74.7 95.2 Q 70.8 92.4 64.5 90.2 Q 58.2 88 50.4 85.4 A 95.253 95.253 0 0 1 42.812 82.302 Q 39.157 80.61 36.112 78.756 A 53.053 53.053 0 0 1 34.6 77.8 A 33.058 33.058 0 0 1 29.151 73.38 A 25.819 25.819 0 0 1 25 67.9 Q 21.8 62.2 21.8 54.4 A 56.591 56.591 0 0 1 23.156 41.765 A 45.719 45.719 0 0 1 26.9 31.3 Q 32 21.2 40.7 14.3 Q 49.4 7.4 60.3 3.7 Q 71.2 0 82.8 0 Q 92.4 0 100.9 2.4 A 88.466 88.466 0 0 1 111.41 6.067 A 74.559 74.559 0 0 1 116.4 8.4 Q 123.4 12 128.6 15.6 L 108.6 42.8 Q 108.428 41.94 106.258 40.266 A 31.197 31.197 0 0 0 105.5 39.7 A 40.399 40.399 0 0 0 103.072 38.083 Q 101.745 37.262 100.171 36.4 A 88.842 88.842 0 0 0 97.9 35.2 A 61.219 61.219 0 0 0 91.595 32.435 A 75.68 75.68 0 0 0 87.4 31 Q 81.6 29.2 75.6 29.2 Q 70 29.2 66 30.9 A 15.576 15.576 0 0 0 62.671 32.8 A 12.237 12.237 0 0 0 59.9 35.7 A 12.055 12.055 0 0 0 58.01 40.546 A 16.142 16.142 0 0 0 57.8 43.2 A 7.912 7.912 0 0 0 60.265 49.102 A 9.788 9.788 0 0 0 60.7 49.5 A 17.629 17.629 0 0 0 63.227 51.291 Q 64.576 52.091 66.234 52.817 A 40.12 40.12 0 0 0 69 53.9 Q 74.4 55.8 81.6 58.4 A 107.435 107.435 0 0 1 91.141 61.872 A 79.198 79.198 0 0 1 99.4 65.9 A 38.722 38.722 0 0 1 106.544 71.034 A 31.525 31.525 0 0 1 111.3 76.5 A 23.313 23.313 0 0 1 114.591 83.981 Q 115.379 87.087 115.552 90.723 A 43.867 43.867 0 0 1 115.6 92.8 A 62.308 62.308 0 0 1 114.639 104.034 Q 113.409 110.742 110.607 116.226 A 38.515 38.515 0 0 1 110.2 117 A 46.416 46.416 0 0 1 99.687 130.245 A 44.028 44.028 0 0 1 96 133.1 Q 87.2 139.2 76.3 142 Q 65.4 144.8 54.2 144.8 Q 39.4 144.8 24.8 140.1 Q 10.2 135.4 0 127.2 Z"
                id="lttr-5" />
            <path
                d="M 125 143.2 L 155.2 1.2 L 188 1.2 L 176.2 56.2 L 227.6 56.2 L 239.4 1.2 L 272.2 1.2 L 242 143.2 L 209.2 143.2 L 221.6 85 L 170.2 85 L 157.8 143.2 L 125 143.2 Z"
                id="lttr-6" />
            <path d="M 269.2 143.2 L 299.4 1.2 L 332.2 1.2 L 302 143.2 L 269.2 143.2 Z" id="7" />
            <path
                d="M 329.2 143.2 L 359.4 1.2 L 451 1.2 L 445 30 L 386 30 L 379.6 60.6 L 428 60.6 L 422.4 87.2 L 373.8 87.2 L 362 143.2 L 329.2 143.2 Z"
                id="lttr-8" />
            <path
                d="M 469.2 143.2 L 493.4 30 L 452.8 30 L 458.8 1.2 L 572.6 1.2 L 566.6 30 L 526.2 30 L 502 143.2 L 469.2 143.2 Z"
                id="lttr-9" />
        </g>
    </g>
    </svg>
</svg>