<?xml version="1.0" standalone="no"?>
<!DOCTYPE svg PUBLIC "-//W3C//DTD SVG 20010904//EN"
 "http://www.w3.org/TR/2001/REC-SVG-20010904/DTD/svg10.dtd">
<svg version="1.0" xmlns="http://www.w3.org/2000/svg"
 width="1024.000000pt" height="1024.000000pt" viewBox="0 0 1024.000000 1024.000000"
 preserveAspectRatio="xMidYMid meet">
<metadata>
Created by potrace 1.14, written by Peter Selinger 2001-2017
</metadata>
<g transform="translate(0.000000,1024.000000) scale(0.100000,-0.100000)"
fill="#000000" stroke="none">
<path d="M3410 10224 c0 -8 -4 -12 -10 -9 -6 3 -10 -4 -10 -17 0 -13 -9 -30
-20 -38 -11 -8 -15 -17 -10 -20 6 -4 2 -16 -10 -30 -11 -13 -19 -28 -17 -34 2
-6 -6 -18 -17 -28 -16 -13 -17 -17 -6 -18 12 0 11 -3 -2 -11 -10 -5 -18 -18
-18 -28 0 -11 -7 -21 -15 -25 -8 -3 -14 -9 -13 -13 4 -14 -13 -53 -23 -53 -6
0 -7 -5 -4 -10 9 -15 -15 -41 -29 -33 -7 4 -6 1 1 -8 10 -13 7 -21 -18 -47
-17 -17 -28 -35 -25 -40 3 -5 -4 -16 -16 -26 -16 -14 -18 -20 -8 -26 9 -6 6
-10 -9 -15 -14 -4 -20 -12 -17 -21 3 -8 1 -14 -4 -14 -5 0 -7 -7 -4 -15 4 -10
0 -15 -11 -15 -9 0 -14 -4 -11 -9 9 -14 -5 -42 -17 -34 -5 3 -7 2 -4 -4 3 -5
-1 -21 -11 -34 -9 -13 -17 -30 -19 -37 -4 -30 -13 -43 -25 -36 -10 5 -10 4 -1
-6 10 -11 8 -17 -9 -32 -14 -12 -17 -18 -7 -18 9 0 10 -3 3 -8 -17 -11 -36
-51 -29 -62 3 -5 0 -12 -6 -16 -8 -5 -9 -3 -4 7 6 10 5 11 -4 3 -7 -6 -13 -21
-14 -33 -1 -11 -7 -21 -15 -21 -7 0 -11 -3 -9 -7 7 -13 -12 -55 -22 -49 -5 3
-7 -3 -4 -14 3 -13 -1 -22 -11 -26 -10 -4 -14 -13 -12 -23 3 -9 1 -23 -4 -31
-5 -8 -10 -10 -10 -5 0 6 -4 3 -10 -5 -6 -9 -5 -20 3 -30 6 -8 8 -12 3 -8 -11
9 -44 -24 -38 -39 2 -7 -1 -13 -7 -13 -6 0 -11 -11 -11 -25 0 -17 -6 -25 -17
-25 -9 0 -13 -3 -10 -7 4 -3 -2 -13 -13 -20 -11 -8 -18 -18 -15 -23 3 -5 -2
-16 -11 -24 -8 -9 -12 -16 -7 -16 4 0 1 -5 -7 -10 -13 -8 -13 -10 -1 -10 12 0
11 -3 -2 -12 -9 -7 -18 -25 -19 -40 -2 -20 -6 -24 -14 -17 -9 7 -12 2 -10 -20
1 -16 0 -29 -3 -29 -20 2 -28 -4 -28 -19 0 -35 -3 -44 -13 -38 -10 6 -14 -7
-11 -33 1 -7 -5 -15 -14 -18 -10 -4 -13 -13 -9 -26 3 -11 2 -18 -3 -15 -5 3
-15 -3 -22 -15 -10 -16 -10 -19 1 -12 7 4 2 -4 -11 -19 -12 -14 -20 -30 -17
-36 4 -5 -4 -17 -16 -25 -12 -9 -18 -16 -12 -16 6 0 11 -7 11 -14 0 -8 -3 -15
-6 -14 -21 2 -28 -5 -26 -27 2 -16 -2 -25 -11 -25 -8 0 -13 -3 -12 -7 4 -14
-13 -53 -21 -49 -4 3 -8 -5 -8 -16 -1 -12 -7 -24 -14 -28 -6 -4 -8 -13 -5 -19
4 -6 2 -11 -5 -11 -7 0 -10 -3 -6 -6 3 -4 -1 -13 -9 -21 -8 -9 -13 -20 -11
-27 2 -6 -5 -16 -17 -23 -12 -7 -15 -12 -8 -13 9 0 8 -7 -4 -25 -9 -14 -21
-22 -28 -18 -6 4 -5 0 2 -9 11 -14 10 -18 -5 -27 -10 -6 -14 -11 -10 -11 4 0
2 -6 -5 -14 -7 -8 -17 -11 -22 -8 -5 3 -6 -2 -3 -12 4 -10 -1 -23 -12 -33 -11
-9 -17 -22 -14 -29 3 -8 -2 -17 -12 -20 -9 -4 -14 -13 -11 -21 3 -7 -3 -22
-13 -32 -13 -13 -16 -22 -9 -29 7 -7 3 -12 -10 -17 -12 -3 -19 -12 -16 -19 3
-8 -5 -23 -17 -35 -13 -12 -17 -21 -11 -21 9 0 9 -4 0 -19 -7 -11 -16 -17 -20
-15 -4 3 -8 -6 -8 -19 0 -14 -7 -30 -15 -37 -8 -7 -13 -16 -10 -20 3 -5 -5
-16 -17 -24 -12 -9 -16 -16 -9 -16 11 0 11 -3 0 -17 -12 -14 -12 -16 0 -8 10
5 12 4 7 -3 -4 -7 -14 -12 -22 -12 -8 0 -13 -4 -10 -9 8 -12 -4 -42 -14 -36
-5 3 -7 -6 -6 -20 2 -13 -1 -22 -5 -19 -10 6 -29 -37 -22 -48 2 -5 -3 -8 -11
-8 -9 0 -13 -6 -10 -13 2 -7 -4 -24 -16 -37 -15 -17 -17 -26 -9 -37 9 -10 7
-13 -11 -13 -18 0 -21 -4 -18 -24 4 -18 0 -26 -13 -29 -12 -3 -16 -11 -12 -26
4 -15 1 -21 -11 -21 -10 0 -15 -4 -11 -9 3 -6 -4 -15 -15 -21 -11 -6 -18 -15
-15 -20 3 -4 -2 -15 -11 -24 -8 -9 -12 -20 -9 -26 3 -5 1 -10 -4 -10 -6 0 -11
-7 -11 -16 0 -8 -3 -13 -7 -11 -5 3 -9 -5 -9 -17 -1 -13 -13 -40 -26 -62 -14
-21 -27 -43 -29 -49 -2 -5 -8 -9 -13 -7 -5 2 -6 -8 -4 -21 4 -23 -14 -52 -26
-40 -10 10 -7 -6 4 -28 6 -11 7 -19 3 -18 -24 4 -34 -3 -31 -23 2 -14 -2 -22
-9 -21 -12 3 -17 -12 -16 -44 1 -7 -5 -13 -13 -13 -8 0 -14 -10 -14 -24 0 -13
-7 -26 -15 -30 -8 -3 -12 -12 -9 -21 4 -9 -1 -17 -10 -21 -9 -3 -16 -11 -15
-18 3 -25 -2 -37 -13 -30 -8 5 -9 2 -5 -9 4 -10 2 -17 -4 -17 -6 0 -9 -7 -5
-15 4 -11 -1 -15 -17 -15 -18 0 -19 -2 -7 -11 11 -8 12 -12 2 -16 -6 -2 -10
-9 -6 -14 3 -5 0 -9 -6 -9 -7 0 -9 -7 -6 -16 3 -8 2 -12 -4 -9 -6 3 -10 -1
-10 -10 0 -8 -6 -18 -14 -21 -8 -3 -12 -12 -9 -20 3 -8 0 -14 -7 -14 -6 0 -8
-4 -5 -10 3 -5 1 -10 -5 -10 -7 0 -8 -6 -1 -19 8 -14 5 -23 -9 -39 -11 -12
-20 -28 -20 -36 0 -8 -9 -21 -21 -29 -15 -11 -17 -16 -7 -20 10 -5 10 -9 -3
-19 -9 -7 -19 -26 -23 -41 -4 -16 -11 -25 -17 -21 -7 4 -9 -1 -7 -12 2 -11 -5
-27 -16 -36 -14 -13 -15 -18 -5 -18 11 -1 11 -3 -2 -13 -9 -7 -20 -23 -24 -37
-4 -14 -15 -30 -24 -37 -14 -11 -14 -12 -1 -13 11 0 9 -6 -8 -20 -14 -12 -18
-21 -12 -25 13 -8 -20 -45 -32 -38 -12 7 -9 -12 3 -24 8 -8 5 -13 -9 -18 -12
-3 -19 -12 -16 -19 3 -8 -5 -23 -17 -35 -16 -15 -18 -21 -8 -21 10 -1 8 -6 -7
-18 -11 -10 -20 -27 -19 -39 1 -14 -5 -23 -18 -27 -10 -2 -16 -9 -13 -15 4 -6
0 -22 -9 -35 -9 -14 -14 -30 -10 -36 3 -5 -1 -10 -9 -10 -8 0 -16 -10 -18 -22
-2 -13 -9 -22 -16 -21 -7 2 -10 -8 -8 -27 2 -21 -1 -30 -11 -30 -11 0 -14 -9
-11 -34 2 -19 1 -34 -2 -34 -18 2 -28 -4 -27 -14 1 -32 -4 -49 -12 -44 -13 9
-20 -16 -9 -36 6 -13 5 -16 -5 -12 -15 5 -31 -22 -22 -36 3 -5 -4 -11 -14 -15
-12 -4 -18 -12 -14 -21 3 -8 -4 -23 -16 -33 -14 -13 -18 -20 -10 -23 9 -3 6
-11 -7 -24 -12 -12 -20 -28 -18 -37 1 -9 -3 -15 -9 -14 -7 1 -11 -6 -11 -15 1
-10 -2 -18 -8 -18 -5 0 -7 -4 -3 -9 3 -6 -3 -14 -12 -20 -11 -6 -13 -11 -5
-11 7 0 1 -11 -14 -25 -15 -14 -22 -25 -15 -25 8 0 8 -5 -1 -19 -7 -11 -15
-18 -19 -16 -3 3 -5 -7 -3 -20 1 -14 -3 -25 -10 -25 -6 0 -13 -10 -13 -22 -1
-13 -8 -27 -16 -33 -8 -5 -12 -16 -10 -22 3 -7 -3 -16 -11 -19 -11 -4 -14 -13
-11 -24 4 -11 -1 -23 -13 -32 -10 -7 -18 -21 -16 -30 1 -10 -3 -21 -8 -25 -7
-4 -8 -1 -3 7 5 9 4 11 -4 6 -7 -4 -11 -15 -9 -24 2 -9 -4 -24 -13 -33 -11
-11 -15 -26 -11 -44 3 -20 1 -26 -7 -21 -10 7 -16 -6 -12 -28 2 -12 -20 -37
-29 -31 -4 2 -6 -6 -5 -20 2 -13 -3 -26 -11 -29 -8 -3 -14 -15 -14 -26 0 -11
-7 -23 -16 -27 -13 -5 -13 -7 -2 -14 10 -7 11 -9 0 -9 -7 0 -11 -4 -8 -9 3 -5
-1 -12 -10 -15 -10 -4 -14 -14 -11 -25 3 -13 -1 -21 -14 -24 -12 -3 -17 -12
-14 -25 2 -11 -3 -23 -11 -26 -8 -3 -14 -15 -14 -26 0 -11 -7 -23 -15 -26 -8
-4 -12 -10 -10 -15 3 -5 -2 -20 -11 -34 -9 -14 -12 -25 -8 -25 5 0 1 -7 -9
-14 -10 -8 -19 -23 -20 -35 -1 -11 -7 -23 -15 -26 -7 -3 -11 -9 -8 -14 3 -5
-1 -14 -9 -21 -8 -7 -12 -17 -8 -23 4 -7 0 -8 -12 -3 -15 5 -16 4 -6 -8 15
-18 5 -40 -15 -32 -11 4 -12 2 -4 -14 8 -14 6 -21 -6 -28 -9 -5 -15 -11 -14
-13 1 -2 -3 -17 -9 -32 -7 -18 -15 -26 -23 -21 -10 5 -10 4 -2 -6 9 -9 7 -17
-7 -31 -11 -11 -17 -25 -13 -31 4 -6 -1 -17 -11 -24 -10 -7 -15 -20 -12 -29 4
-8 1 -15 -6 -15 -8 0 -6 -4 3 -10 11 -7 11 -10 2 -10 -7 0 -10 -5 -7 -10 4 -6
1 -9 -7 -8 -7 2 -13 -6 -13 -17 0 -11 -8 -25 -19 -31 -12 -7 -15 -14 -8 -18 8
-4 5 -13 -8 -26 -10 -10 -17 -28 -15 -39 3 -15 -1 -19 -16 -16 -15 3 -17 0
-10 -13 9 -17 -10 -46 -23 -36 -3 2 -4 1 -2 -2 8 -10 -16 -64 -25 -58 -5 3 -9
0 -9 -5 0 -6 6 -11 13 -11 6 0 3 -7 -8 -16 -11 -8 -20 -23 -20 -34 0 -10 -4
-22 -9 -27 -5 -5 -6 -2 -1 6 5 9 4 12 -3 7 -17 -10 -15 -53 3 -60 10 -4 14
-14 11 -31 -3 -13 -2 -24 2 -24 22 3 31 -3 25 -17 -4 -10 0 -20 10 -26 9 -4
14 -15 11 -22 -3 -8 4 -19 16 -26 17 -9 19 -14 9 -26 -10 -12 -8 -16 10 -21
13 -3 20 -11 17 -19 -7 -18 4 -45 15 -38 5 3 9 -4 9 -16 0 -19 22 -52 31 -47
3 1 1 -2 -3 -7 -10 -13 2 -36 19 -36 13 0 13 -3 3 -15 -7 -8 -8 -15 -3 -15 6
0 8 -12 6 -27 -4 -22 -2 -25 6 -13 8 11 11 11 12 3 2 -13 5 -27 9 -40 1 -5 2
-11 1 -16 0 -4 4 -6 10 -5 6 2 13 -7 14 -20 1 -12 10 -29 21 -38 10 -8 14 -13
8 -10 -6 3 -11 -1 -11 -9 0 -8 4 -12 9 -9 10 6 30 -44 22 -57 -3 -5 0 -8 8 -7
8 2 13 -6 12 -19 0 -13 5 -23 13 -23 13 0 17 -12 14 -38 -1 -6 8 -12 21 -12
17 0 19 -3 9 -9 -10 -7 -11 -13 -2 -30 7 -11 17 -21 23 -21 6 0 5 -6 -3 -17
-8 -9 -9 -14 -2 -10 11 7 30 -28 25 -46 -2 -5 6 -11 16 -14 14 -3 18 -11 14
-29 -2 -13 0 -24 4 -24 5 0 15 -9 22 -21 11 -17 11 -20 0 -14 -7 3 -5 0 6 -9
10 -8 19 -26 20 -40 0 -13 6 -24 11 -23 6 1 10 -7 10 -18 1 -11 6 -19 13 -17
7 1 11 -1 11 -5 -5 -30 3 -55 15 -50 9 4 13 -2 12 -16 -2 -25 12 -49 24 -42 5
3 7 -6 5 -20 -1 -15 4 -29 13 -34 8 -4 12 -14 10 -22 -3 -8 8 -39 24 -68 16
-30 26 -61 23 -69 -2 -7 -1 -11 3 -9 11 7 29 -17 26 -36 -1 -9 3 -15 9 -14 7
1 12 -7 12 -18 0 -24 16 -45 29 -37 5 3 6 0 2 -6 -9 -15 12 -54 25 -46 8 4 8
1 1 -13 -9 -15 -7 -22 8 -33 10 -8 17 -17 14 -21 -2 -4 2 -13 9 -21 8 -7 13
-21 11 -31 -1 -9 4 -17 12 -17 14 0 18 -11 14 -44 -1 -11 3 -15 9 -12 10 7 13
3 15 -26 1 -7 9 -19 19 -26 15 -12 16 -16 5 -30 -10 -12 -10 -14 -1 -8 8 4 13
1 13 -9 0 -9 4 -14 9 -10 5 3 12 1 16 -5 3 -5 1 -10 -6 -10 -8 0 -6 -6 4 -18
10 -10 17 -24 17 -31 0 -7 7 -19 16 -28 8 -9 13 -22 10 -29 -3 -7 3 -16 14
-19 13 -4 17 -13 14 -31 -3 -16 0 -23 8 -22 8 2 13 -9 14 -29 1 -18 9 -40 18
-48 8 -9 13 -22 10 -29 -3 -7 2 -16 10 -19 9 -4 13 -15 11 -27 -2 -11 -1 -19
3 -16 11 6 29 -18 26 -37 -1 -9 4 -17 12 -17 9 0 12 -5 9 -10 -3 -6 0 -10 7
-10 10 0 10 -2 -1 -9 -10 -7 -8 -12 9 -24 13 -9 19 -20 15 -27 -4 -6 1 -17 11
-24 11 -8 15 -20 11 -30 -4 -9 -3 -15 2 -12 9 6 24 -19 26 -41 0 -7 9 -19 20
-27 12 -9 15 -15 7 -16 -8 0 -5 -10 9 -29 12 -16 18 -34 15 -40 -4 -6 -1 -11
7 -11 8 0 18 -7 21 -16 4 -10 2 -13 -7 -8 -8 5 -8 2 2 -9 7 -9 17 -15 21 -12
4 2 6 -6 5 -20 -2 -13 3 -26 11 -29 8 -3 14 -17 14 -31 0 -15 4 -24 10 -20 5
3 11 -1 11 -9 3 -36 5 -41 18 -38 7 1 10 -2 6 -8 -3 -5 -2 -10 3 -10 6 0 8 -9
5 -20 -4 -13 0 -20 9 -20 8 0 15 -7 16 -15 1 -8 3 -22 4 -30 1 -8 7 -15 14
-15 8 0 11 -6 8 -13 -3 -8 2 -19 10 -26 9 -7 13 -24 11 -42 -2 -16 -1 -28 3
-25 5 3 14 -4 21 -16 7 -11 8 -17 2 -13 -17 10 -13 1 9 -25 11 -13 20 -32 20
-42 0 -11 4 -17 9 -13 5 3 11 -7 13 -22 2 -16 8 -27 14 -26 8 1 10 -6 6 -19
-4 -16 -2 -19 9 -13 12 8 12 6 0 -9 -8 -9 -10 -16 -5 -15 21 4 35 -2 29 -11
-4 -6 0 -22 9 -35 9 -13 16 -31 16 -40 0 -9 4 -13 10 -10 6 4 10 -5 10 -20 0
-14 7 -28 15 -31 8 -4 12 -10 9 -15 -3 -5 1405 -9 3416 -9 2297 0 3419 3 3415
10 -3 6 4 14 17 19 13 6 17 10 9 10 -10 1 -11 4 -2 14 6 8 8 17 4 20 -3 4 1 7
10 7 11 0 14 7 11 26 -3 16 -1 23 6 19 6 -4 13 7 16 24 4 17 10 28 15 25 8 -5
13 10 10 30 -1 4 6 14 15 21 10 7 15 19 11 29 -4 10 -1 16 8 16 8 0 16 7 16
15 3 34 5 40 17 38 7 -2 9 4 5 14 -4 10 -2 14 4 10 7 -5 9 0 6 13 -4 14 0 20
11 20 9 0 13 6 10 15 -3 8 6 26 22 42 16 15 27 36 25 47 -1 11 2 16 8 12 10
-6 15 6 12 27 0 4 3 7 9 7 5 0 6 7 3 17 -4 10 -2 14 5 9 16 -10 25 13 11 30
-7 8 -8 14 -3 13 21 -4 35 2 29 11 -3 6 0 10 7 10 10 0 10 2 -1 9 -11 7 -10
11 7 20 13 7 19 17 16 26 -4 8 -1 15 6 15 6 0 8 5 5 10 -3 6 -1 10 4 10 6 0
11 11 11 25 0 14 5 24 11 23 6 -2 13 8 15 21 3 13 12 30 22 37 14 11 14 13 2
14 -11 0 -10 4 5 16 11 8 20 20 21 27 3 33 5 38 13 33 14 -9 21 20 8 33 -11
11 -9 12 16 15 6 0 12 13 11 28 0 15 3 25 6 23 3 -2 12 0 20 6 12 7 12 9 1 9
-10 0 -11 3 -2 13 6 8 7 18 3 22 -4 5 0 6 9 2 11 -3 16 0 16 11 0 35 3 43 14
36 8 -5 10 1 7 19 -3 18 0 27 11 30 9 2 17 14 18 27 1 13 9 28 18 32 8 5 13
13 10 19 -4 5 7 20 22 33 16 13 29 34 30 47 1 12 7 26 14 30 7 4 9 14 6 23 -6
14 3 20 24 18 4 -1 5 8 2 19 -4 12 0 25 7 29 8 5 15 15 16 24 1 9 10 23 19 32
11 11 13 19 6 23 -7 4 -3 12 9 21 11 8 20 22 20 32 0 10 5 18 10 18 6 0 9 3 9
8 -4 25 4 42 22 47 14 5 18 10 10 14 -8 5 -6 15 9 33 14 19 17 27 8 30 -8 3
-4 9 10 17 14 7 22 21 22 37 0 14 4 22 10 19 6 -3 10 5 10 19 0 16 7 27 21 31
15 5 18 10 10 18 -7 7 -4 17 9 35 11 13 18 28 15 32 -3 4 2 11 11 14 8 3 12
10 9 16 -3 5 0 10 7 10 10 0 10 2 -1 9 -11 7 -9 10 7 15 13 5 19 12 15 22 -3
8 2 21 12 28 10 7 15 18 11 24 -3 6 2 17 12 24 12 8 18 22 16 35 -2 13 -1 22
4 21 4 -1 16 4 28 11 15 10 19 21 16 39 -3 17 -1 23 7 18 10 -7 13 -3 15 27 1
6 8 19 17 27 9 8 15 23 13 32 -1 10 4 18 12 18 8 0 14 10 14 25 0 13 6 28 12
32 7 4 13 15 13 23 0 8 5 14 12 13 7 -2 10 6 8 18 -2 11 5 29 15 39 11 11 17
20 14 20 -4 0 1 12 11 26 9 14 14 28 11 31 -3 4 3 12 14 20 11 8 20 25 20 39
0 17 4 23 12 18 8 -5 9 0 5 15 -3 14 1 26 14 35 11 7 19 17 18 22 -4 22 2 35
13 28 7 -5 9 -2 5 8 -3 9 3 25 13 36 10 11 16 22 13 26 -9 9 18 37 29 30 6 -4
5 3 -1 15 -11 19 -8 25 10 23 3 -1 6 6 7 14 1 7 3 21 4 29 1 8 7 15 15 15 7 0
13 11 13 25 0 14 8 29 20 35 11 6 23 22 26 35 3 14 10 25 16 25 5 0 6 5 3 10
-3 6 -1 10 5 10 7 0 9 8 5 20 -5 15 -3 18 10 14 9 -4 15 -3 14 2 -5 28 2 56
14 51 8 -3 13 4 12 22 0 14 5 25 12 24 6 -1 14 4 17 12 3 8 1 15 -4 15 -5 0
-7 7 -4 15 4 8 10 13 14 10 10 -6 22 24 14 36 -3 5 2 12 10 15 9 3 13 10 10
15 -3 5 -1 9 5 9 6 0 7 7 4 17 -4 11 -3 14 5 9 11 -7 16 7 15 42 -1 6 6 12 14
12 8 0 13 5 11 12 -5 13 -257 18 -265 5 -2 -4 -9 -4 -15 -1 -18 11 -92 11
-107 -1 -10 -7 -13 -7 -9 0 8 13 -132 13 -152 0 -7 -5 -11 -4 -8 1 4 5 -24 9
-62 9 -40 0 -66 -3 -63 -9 4 -5 1 -6 -7 -1 -18 11 -320 12 -313 1 4 -5 0 -6
-7 -1 -17 11 -370 13 -377 2 -2 -4 -9 -4 -15 -1 -19 12 -89 13 -82 2 5 -7 2
-8 -6 -3 -17 11 -370 13 -377 2 -2 -4 -9 -4 -15 -1 -16 10 -139 11 -144 2 -3
-5 -10 -5 -16 -2 -19 12 -89 13 -82 2 5 -7 2 -8 -6 -3 -17 11 -370 13 -377 2
-2 -4 -9 -4 -15 -1 -18 11 -92 11 -107 -1 -10 -7 -13 -7 -9 0 8 13 -132 13
-152 0 -7 -5 -11 -4 -7 1 6 10 -172 12 -189 1 -6 -3 -14 -4 -17 -1 -11 12 -88
13 -81 2 5 -7 2 -8 -5 -4 -21 13 -131 14 -131 2 0 -7 -3 -7 -8 -1 -10 14 -162
15 -162 1 0 -6 -11 2 -25 18 -13 16 -22 33 -19 37 3 5 0 9 -6 9 -6 0 -9 4 -6
9 3 5 -1 12 -10 15 -8 3 -13 10 -10 15 8 13 -4 42 -15 35 -5 -3 -10 2 -10 10
-3 35 -5 41 -17 39 -6 -2 -9 4 -5 12 3 9 -4 23 -15 34 -17 14 -19 20 -9 30 9
9 7 13 -10 17 -14 4 -20 12 -18 24 2 10 -3 24 -11 31 -8 6 -14 18 -14 26 0 8
-7 21 -15 30 -8 8 -13 19 -10 24 4 5 1 9 -5 9 -6 0 -9 4 -6 9 3 5 -1 12 -10
15 -14 5 -14 9 -3 23 8 9 9 14 3 10 -13 -8 -37 16 -27 27 4 3 -4 16 -17 28
-15 14 -19 23 -11 26 9 3 9 7 0 18 -6 8 -15 12 -19 9 -5 -3 -7 3 -6 12 2 10
-4 24 -13 31 -12 10 -12 12 -1 6 13 -7 13 -5 2 9 -8 9 -10 22 -6 28 4 8 3 9
-4 5 -7 -4 -12 -2 -12 4 0 6 -4 9 -9 6 -5 -4 -8 5 -6 20 1 16 -2 23 -9 21 -7
-3 -13 6 -14 20 -1 13 -9 31 -17 39 -8 9 -13 20 -10 25 4 5 2 9 -4 9 -6 0 -15
10 -22 21 -9 17 -8 20 3 13 10 -6 11 -5 1 8 -7 8 -9 18 -5 22 4 4 0 6 -8 4 -8
-2 -15 4 -16 12 -3 37 -5 41 -14 35 -5 -3 -11 1 -11 9 -3 33 -4 37 -15 44 -6
4 -10 15 -8 25 1 9 -2 15 -7 11 -5 -3 -9 2 -9 11 0 9 -4 14 -9 11 -5 -4 -7 3
-4 14 4 13 0 20 -10 20 -8 0 -14 8 -14 18 0 34 -3 43 -13 37 -6 -3 -10 5 -10
18 0 14 -7 27 -15 31 -8 3 -12 12 -9 20 3 9 -3 20 -14 27 -17 11 -19 17 -10
33 6 12 7 18 3 14 -10 -9 -34 14 -28 28 2 6 -3 14 -11 17 -9 4 -16 17 -16 31
0 13 -5 26 -10 28 -6 2 -12 13 -13 25 0 12 -4 20 -8 17 -8 -5 -23 26 -20 41 1
5 -5 15 -15 22 -9 7 -14 19 -10 28 3 9 2 13 -4 10 -5 -3 -13 9 -18 27 -5 18
-14 32 -20 31 -5 -1 -9 9 -7 22 1 14 -5 31 -13 37 -13 11 -14 11 -7 -2 5 -9 5
-12 -1 -7 -9 9 -10 13 -13 43 0 8 -6 12 -11 9 -6 -4 -10 -3 -9 2 4 23 -2 53
-10 49 -5 -3 -11 1 -15 9 -3 8 0 15 6 15 7 0 2 9 -10 21 -12 11 -20 24 -17 30
4 5 2 9 -3 9 -8 0 -15 14 -23 50 -3 14 -23 29 -31 24 -6 -4 -5 3 1 15 10 17 9
21 -4 21 -10 0 -15 10 -15 31 0 23 -4 30 -14 26 -8 -3 -17 1 -20 9 -3 8 -2 12
4 9 5 -3 8 3 7 14 0 11 -4 18 -8 15 -9 -5 -23 16 -24 36 0 8 -6 14 -13 12 -7
-1 -12 3 -11 10 4 30 -2 48 -16 48 -9 0 -12 6 -8 15 3 9 -2 22 -12 29 -10 7
-16 20 -13 28 4 8 -2 20 -14 27 -16 10 -17 15 -8 27 12 14 12 15 -12 18 -7 1
-12 9 -12 19 1 9 -2 17 -6 17 -8 0 -23 33 -25 55 0 6 -6 9 -12 8 -7 -2 -10 6
-8 17 2 11 0 20 -6 20 -5 0 -8 6 -6 13 1 6 -3 11 -8 10 -6 -1 -12 10 -13 25
-1 14 -5 28 -10 31 -4 3 -8 13 -10 21 -2 8 -10 19 -18 23 -8 5 -12 12 -9 18 4
5 -1 16 -9 25 -9 9 -14 20 -11 25 4 5 0 9 -7 9 -9 0 -9 3 2 10 12 8 11 10 -7
10 -17 0 -21 5 -18 20 2 12 -2 23 -11 27 -8 3 -14 15 -12 27 2 13 -2 20 -9 19
-11 -3 -14 6 -13 32 1 3 -6 13 -15 21 -8 9 -13 20 -10 25 4 5 1 9 -6 9 -7 0
-9 3 -6 7 4 3 -1 12 -11 20 -9 8 -11 12 -4 8 17 -9 15 -2 -8 25 -11 13 -20 31
-20 42 0 10 -7 18 -15 18 -8 0 -12 6 -9 14 3 8 -4 25 -15 37 -14 16 -18 26
-11 34 8 9 4 14 -11 18 -16 4 -19 11 -14 27 4 14 2 20 -6 18 -7 -2 -15 6 -17
17 -7 39 -33 85 -44 79 -6 -4 -8 -3 -4 4 3 6 2 13 -4 17 -6 4 -8 11 -4 16 3 6
-2 17 -12 25 -11 9 -12 12 -5 8 9 -5 6 5 -7 23 -12 17 -22 39 -22 48 0 9 -4
14 -9 11 -5 -3 -11 7 -14 23 -3 16 -12 35 -20 43 -15 14 -8 52 8 46 6 -2 11 9
13 25 2 15 8 27 13 27 5 0 9 9 9 20 0 11 6 20 14 20 8 0 13 8 11 18 -1 9 4 25
12 34 8 9 12 22 8 27 -3 6 2 15 12 19 11 4 19 17 19 32 0 14 6 24 12 23 7 -2
12 8 12 22 0 14 7 28 16 32 8 3 13 11 10 18 -2 7 4 22 14 33 10 11 16 23 12
27 -4 4 1 13 12 20 10 8 15 19 11 24 -3 6 1 14 10 17 9 4 14 13 11 20 -3 8 -1
14 5 14 6 0 8 4 5 9 -3 5 1 11 9 15 8 3 12 11 10 18 -3 8 3 23 14 35 11 11 17
24 13 28 -4 4 1 13 11 20 10 7 18 16 18 19 -3 24 1 36 9 31 6 -3 11 0 11 7 1
7 2 19 3 26 0 7 7 16 14 21 7 4 12 12 11 17 -3 20 1 35 10 30 14 -9 21 20 8
33 -11 11 -9 12 16 15 6 0 12 9 12 18 0 9 7 24 16 35 9 10 14 23 12 30 -2 6 5
17 17 23 16 8 18 15 10 29 -8 15 -5 20 11 24 12 3 18 10 14 17 -4 6 0 19 9 29
9 10 16 25 14 32 -2 8 3 13 11 11 9 -2 12 5 9 22 -3 14 -2 23 2 21 5 -3 11 2
14 11 3 9 11 12 18 8 10 -6 10 -4 0 8 -11 14 -10 19 8 31 16 11 18 16 8 20 -9
4 -9 6 -1 6 7 1 10 8 6 16 -3 10 0 15 8 13 9 -2 14 6 14 24 -1 15 4 26 9 25 5
-1 12 7 14 17 2 11 10 26 18 34 8 7 12 17 9 22 -3 5 5 16 17 25 16 11 19 18
11 23 -13 8 -2 35 13 33 5 -1 10 10 12 24 2 14 8 25 13 25 5 0 9 9 9 20 0 11
4 20 9 20 7 0 13 14 21 48 1 4 8 10 15 15 8 4 12 16 10 27 -3 13 2 20 12 20
10 0 14 6 10 20 -3 13 0 20 10 20 8 0 11 5 8 10 -3 6 -1 10 5 10 6 0 8 5 5 11
-4 5 1 19 10 29 9 10 14 23 11 29 -4 5 -1 13 5 17 8 5 9 3 4 -6 -5 -9 -4 -11
3 -6 7 4 12 15 12 25 0 9 6 23 13 30 10 11 9 12 -2 6 -9 -5 -12 -4 -7 3 4 7
15 12 24 12 15 0 15 2 2 10 -11 7 -11 10 -2 10 7 0 11 4 8 9 -3 5 1 12 10 15
8 3 12 11 9 17 -4 5 1 16 11 23 10 8 15 20 11 30 -4 9 -2 16 4 16 6 0 7 4 4
10 -3 5 0 7 9 4 11 -4 14 1 12 20 -2 18 2 26 11 26 9 0 13 6 9 15 -3 8 -1 15
5 15 6 0 8 4 5 9 -4 5 -1 11 4 13 6 2 12 13 13 25 0 12 3 20 6 18 2 -3 10 0
18 6 10 9 10 15 2 25 -8 9 -5 15 10 24 12 6 20 14 20 18 -4 25 2 42 13 36 8
-5 9 -2 5 9 -3 10 -2 17 4 17 6 0 8 4 5 9 -4 5 -1 11 4 13 6 2 12 13 13 25 0
12 3 20 5 18 8 -8 29 21 24 33 -3 8 1 18 8 22 7 5 14 19 15 32 1 12 8 22 15
20 8 -2 11 6 8 23 -3 14 -3 23 0 20 8 -8 32 16 26 27 -3 5 5 21 17 35 13 15
17 22 9 18 -10 -6 -9 -1 4 13 10 11 19 32 20 45 0 16 6 23 14 19 8 -2 13 1 12
9 -4 27 0 40 10 34 6 -3 11 1 11 9 1 9 2 21 3 27 0 6 10 17 20 25 11 8 14 14
8 14 -10 0 -10 5 -2 20 6 11 15 18 21 14 6 -3 8 5 5 20 -3 18 1 27 14 31 12 4
17 12 13 22 -3 9 0 21 8 27 8 6 16 20 17 31 2 11 7 22 12 25 4 3 10 15 14 28
4 12 12 20 17 16 6 -3 8 5 5 20 -3 18 0 26 10 26 12 0 20 26 15 53 -1 5 3 6 8
3 5 -3 15 2 22 11 10 12 10 14 2 9 -18 -10 -16 9 2 24 8 7 12 16 9 21 -3 5 0
9 7 9 7 0 9 3 6 7 -4 3 1 12 10 18 15 11 15 15 4 29 -12 14 -12 16 4 10 13 -5
16 -4 11 4 -4 7 -2 12 3 12 6 0 11 7 11 16 0 8 7 22 16 31 8 9 13 22 10 29 -3
8 3 19 13 26 11 7 16 18 13 30 -3 12 0 18 8 16 7 -2 15 3 17 10 4 9 -342 12
-1706 12 -1543 0 -1711 -2 -1711 -16z m5750 -8927 c0 -2 -10 -12 -22 -23 l-23
-19 19 23 c18 21 26 27 26 19z"/>
</g>
</svg>
